<svg width="50" height="50" viewBox="0 0 50 50" fill="none" xmlns="http://www.w3.org/2000/svg">
<g clip-path="url(#clip0_449_8497)">
<rect x="-0.000244141" width="50" height="50" rx="25" fill="white"/>
<path d="M49.9998 0H-0.000244141V50H49.9998V0Z" fill="#ADB0D9"/>
<path d="M37.3898 13.5799C37.5798 12.8799 38.0898 12.2099 37.9598 11.4999C37.8598 10.9499 37.6298 10.3799 37.6998 9.80991C37.7498 9.38991 38.3798 8.12991 38.9298 8.27991C39.1498 8.33991 39.2598 8.58991 39.3298 8.79991C39.7298 9.94991 40.0498 10.9299 40.1798 12.1599C40.3098 13.3999 40.3398 14.6499 40.2898 15.8999C40.2598 16.6699 40.1898 17.4499 39.8798 18.1499C39.6098 18.7699 39.1498 19.3099 38.5898 19.6799C38.4298 19.3299 38.0898 19.1099 37.8398 18.8199C37.4398 18.3699 37.2498 17.7799 37.1398 17.1899C37.1398 15.9399 37.0598 14.8199 37.3898 13.5799Z" fill="#444DF2"/>
<path d="M36.2298 24.9999C36.0298 24.1799 36.1098 23.3199 36.1898 22.4799C36.2898 21.4699 36.5898 20.4199 37.2098 19.6799C37.6898 19.1099 38.3698 18.7299 39.2898 18.7099C39.8998 18.6999 40.7798 18.8499 41.1298 19.3999C41.4898 19.9799 41.5798 20.9499 41.5298 21.5999C41.4598 22.4799 41.0998 23.2899 40.7498 24.0799C40.3698 24.9499 39.8698 26.8199 38.7098 26.8999C37.4998 26.9899 36.5098 26.1299 36.2298 24.9999Z" fill="#F5B18F"/>
<path d="M29.7897 49.9999H7.53973C7.61973 49.6599 7.69973 49.3199 7.77973 48.9799C9.36973 42.1599 9.98973 35.5499 10.0797 28.3999C15.7097 30.4799 21.6297 29.5899 27.4397 29.4999C29.5997 29.4699 28.8797 31.9199 28.8997 34.2099C28.9297 37.0699 29.0397 39.9199 29.2097 42.7599C29.3497 45.1799 29.5497 47.5999 29.7897 49.9999Z" fill="#F5B18F"/>
<path d="M39.5897 16.2C39.3597 19.06 39.0097 21.92 38.8197 24.79C38.7397 26.06 38.6897 27.32 38.6897 28.59C38.6997 32.51 39.1697 36.76 37.0097 40.0299C35.4197 42.43 32.6097 43.84 29.7497 44.21C27.6797 44.48 25.6097 44.2299 23.5897 43.7799C20.4397 43.09 17.2097 41.83 14.5397 39.88C12.8997 38.68 11.4797 37.22 10.4297 35.46C9.41974 33.78 8.81974 31.89 8.50974 29.94C8.34974 28.91 8.26974 27.86 8.25974 26.81C8.23974 24.86 8.43974 22.91 8.71974 20.98C9.11974 18.22 9.50974 15.3 11.0797 12.92C12.5497 10.7 14.7297 8.96995 17.1597 7.89995C21.2197 6.11995 25.8097 5.99995 30.2397 6.26995C31.8097 6.36995 33.3897 6.50995 34.8797 7.00995C36.3697 7.50995 37.7697 8.39995 38.6197 9.70995C39.8297 11.58 39.7697 13.98 39.5897 16.2Z" fill="#FEC29B"/>
<path d="M24.127 26.0464C24.9261 25.994 25.5021 24.8569 25.4135 23.5066C25.3248 22.1564 24.6052 21.1043 23.806 21.1567C23.0069 21.2092 22.4309 22.3463 22.5195 23.6966C22.6082 25.0468 23.3278 26.0989 24.127 26.0464Z" fill="#1B1464"/>
<path d="M33.5384 24.7361C34.3375 24.6837 34.9135 23.5466 34.8249 22.1963C34.7363 20.8461 34.0166 19.794 33.2175 19.8464C32.4183 19.8989 31.8424 21.036 31.931 22.3863C32.0196 23.7365 32.7393 24.7886 33.5384 24.7361Z" fill="#1B1464"/>
<path d="M21.4418 19.0719C21.9138 18.7909 22.6668 18.5279 23.4228 18.4799C24.1828 18.4319 24.8398 18.6039 25.2568 19.0539L26.0638 18.3059C25.3318 17.5159 24.2828 17.3229 23.3528 17.3819C22.4188 17.4409 21.4968 17.7589 20.8788 18.1269L21.4418 19.0719ZM25.2568 19.0539C25.4638 19.2769 25.8118 19.2899 26.0338 19.0829C26.2568 18.8759 26.2698 18.5279 26.0628 18.3059L25.2568 19.0539ZM20.8778 18.1279C20.6168 18.2839 20.5318 18.6209 20.6868 18.8819C20.8428 19.1429 21.1798 19.2279 21.4408 19.0729L20.8778 18.1279Z" fill="#1B1464"/>
<path d="M33.3198 17.8799C33.5868 18.3609 33.5858 18.3609 33.5858 18.3609C33.5858 18.3609 33.5868 18.3609 33.5878 18.3599C33.5898 18.3589 33.5948 18.3559 33.6018 18.3529C33.6148 18.3459 33.6368 18.3349 33.6658 18.3209C33.7238 18.2929 33.8108 18.2539 33.9198 18.2109C34.1408 18.1239 34.4428 18.0269 34.7778 17.9779C35.4478 17.8799 36.1718 17.9779 36.7138 18.6469L37.5678 17.9539C36.6898 16.8719 35.5038 16.7609 34.6188 16.8899C34.1768 16.9549 33.7898 17.0799 33.5168 17.1879C33.3788 17.2419 33.2668 17.2929 33.1888 17.3309C33.1488 17.3499 33.1178 17.3659 33.0958 17.3779C33.0848 17.3839 33.0758 17.3889 33.0688 17.3919C33.0658 17.3939 33.0628 17.3949 33.0608 17.3969C33.0598 17.3979 33.0588 17.3979 33.0578 17.3989C33.0578 17.3989 33.0568 17.3989 33.0568 17.3999C33.0538 17.3989 33.0528 17.3989 33.3198 17.8799ZM36.7128 18.6469C36.9038 18.8829 37.2508 18.9189 37.4868 18.7279C37.7228 18.5369 37.7588 18.1899 37.5678 17.9539L36.7128 18.6469ZM33.0528 17.3989C32.7868 17.5459 32.6908 17.8809 32.8388 18.1469C32.9858 18.4129 33.3208 18.5089 33.5868 18.3609L33.0528 17.3989Z" fill="#1B1464"/>
<path d="M23.4598 34.548C25.1598 36.173 27.6038 36.976 29.9348 36.696L29.8038 35.604C27.7948 35.845 25.6788 35.148 24.2188 33.752L23.4598 34.548ZM29.9348 36.696C30.2368 36.66 30.4518 36.386 30.4158 36.084C30.3798 35.782 30.1058 35.567 29.8038 35.603L29.9348 36.696ZM24.2198 33.752C23.9998 33.542 23.6518 33.55 23.4418 33.77C23.2318 33.99 23.2398 34.338 23.4598 34.548L24.2198 33.752Z" fill="#1B1464"/>
<path d="M39.4898 10.47C38.6598 12.96 34.8098 13.39 32.6098 13.63C29.2598 14 26.2798 13.25 23.0598 12.5C22.6398 12.4 17.2098 11.07 17.2098 11.07C16.9298 13.85 16.2998 16.31 14.6098 18.54C13.8798 19.5 14.5198 20.7 14.4098 21.96C14.2798 23.57 14.2298 25.53 13.7298 27.07C13.6698 27.27 13.4798 27.44 13.2698 27.41C12.9798 27.37 12.8898 27.02 12.7798 26.75C12.5298 26.12 11.8198 25.55 11.1198 25.85C10.4598 26.14 10.1298 27.17 9.78978 27.74C9.46978 28.28 8.96978 28.74 8.78978 29.34C8.72978 29.54 8.70978 29.75 8.61978 29.94C8.52978 30.13 8.34978 30.3 8.13978 30.3C7.98978 30.3 7.84978 30.2 7.73978 30.1C6.64978 29.16 6.46978 27.92 6.09978 26.64C5.67978 25.14 5.50977 23.59 5.35977 22.05C5.26977 21.05 5.18977 20.04 5.05977 19.04C4.94977 18.17 4.70978 17.31 4.69978 16.43C4.65978 13.59 5.24978 10.71 6.63978 8.25C8.45978 5.05 12.1698 3.36 15.4998 2.48C20.9798 1.04 26.4498 1.83 31.7798 3.53C33.9298 4.22 40.5098 7.44 39.4898 10.47Z" fill="#444DF2"/>
<path d="M31.4697 25.6529C31.0297 25.2529 30.7177 25.0259 30.4847 24.7189C30.2947 24.4669 30.1887 24.1899 30.2627 23.7389L29.1767 23.5609C29.0507 24.3299 29.2497 24.9079 29.6067 25.3809C29.9217 25.7979 30.3987 26.1659 30.7297 26.4669L31.4697 25.6529ZM32.4197 27.8169C32.4447 26.9919 32.0677 26.1899 31.4677 25.6509L30.7327 26.4689C31.1127 26.8099 31.3347 27.3079 31.3207 27.7829L32.4197 27.8169ZM27.1847 29.7659C28.0707 30.2789 29.2907 30.5679 30.3417 30.3589C30.8777 30.2529 31.3947 30.0109 31.7847 29.5739C32.1787 29.1329 32.3987 28.5409 32.4187 27.8149L31.3187 27.7839C31.3037 28.2979 31.1547 28.6269 30.9627 28.8419C30.7677 29.0609 30.4857 29.2089 30.1257 29.2799C29.3867 29.4269 28.4367 29.2209 27.7327 28.8129L27.1847 29.7659ZM30.2627 23.7389C30.3117 23.4389 30.1087 23.1559 29.8087 23.1069C29.5087 23.0579 29.2257 23.2609 29.1767 23.5609L30.2627 23.7389ZM31.0997 26.0599L30.7297 26.4669C30.7307 26.4679 30.7317 26.4689 30.7327 26.4689L31.0997 26.0599ZM31.8697 27.7999L31.3197 27.7829V27.7839L31.8697 27.7999ZM27.7347 28.8139C27.4717 28.6619 27.1357 28.7519 26.9827 29.0149C26.8307 29.2779 26.9207 29.6139 27.1837 29.7669L27.7347 28.8139Z" fill="#1B1464"/>
<path d="M11.6097 20.1901C10.9697 19.4301 10.0797 18.9301 8.85975 18.9001C7.06975 18.8601 5.34975 20.0901 4.70975 21.7601C3.66975 24.4501 5.40975 27.7401 7.75975 29.1201C9.84975 30.3501 12.2997 29.6301 12.9097 27.2001C13.1797 26.1201 13.0697 24.9801 12.9697 23.8801C12.8298 22.5501 12.4297 21.1701 11.6097 20.1901Z" fill="#FEC29B"/>
<path d="M10.4798 24.44C10.5528 23.895 10.5518 23.895 10.5518 23.895C10.5518 23.895 10.5518 23.895 10.5508 23.895H10.5498C10.5488 23.895 10.5478 23.895 10.5468 23.895C10.5438 23.895 10.5408 23.894 10.5368 23.894C10.5288 23.893 10.5178 23.892 10.5048 23.89C10.4778 23.887 10.4408 23.883 10.3938 23.88C10.3008 23.873 10.1708 23.865 10.0168 23.864C9.71176 23.862 9.29176 23.886 8.86676 23.996C8.44576 24.105 7.97276 24.311 7.62076 24.709C7.25376 25.123 7.07076 25.685 7.13176 26.388L8.22776 26.293C8.18876 25.846 8.30576 25.595 8.44476 25.438C8.59876 25.264 8.83876 25.139 9.14276 25.061C9.44276 24.983 9.75976 24.963 10.0118 24.964C10.1358 24.965 10.2378 24.971 10.3088 24.976C10.3438 24.979 10.3708 24.981 10.3878 24.983C10.3968 24.984 10.4028 24.985 10.4058 24.985C10.4078 24.985 10.4088 24.985 10.4088 24.985C10.4068 24.985 10.4068 24.985 10.4798 24.44ZM6.97976 22.34C7.06176 22.884 7.06176 22.884 7.06176 22.884C7.06176 22.884 7.06376 22.884 7.06576 22.883C7.06976 22.882 7.07676 22.882 7.08576 22.88C7.10476 22.878 7.13476 22.874 7.17476 22.87C7.25376 22.862 7.36976 22.854 7.51076 22.851C7.79476 22.845 8.16476 22.863 8.52976 22.949C8.89676 23.035 9.22775 23.183 9.47175 23.413C9.70375 23.633 9.89176 23.959 9.93276 24.48L11.0298 24.396C10.9698 23.618 10.6708 23.031 10.2278 22.613C9.79676 22.206 9.26476 21.991 8.78276 21.877C8.29776 21.763 7.82976 21.743 7.48976 21.75C7.31776 21.753 7.17476 21.764 7.07276 21.773C7.02176 21.778 6.98076 21.783 6.95176 21.786C6.93676 21.788 6.92576 21.789 6.91676 21.791C6.91276 21.792 6.90876 21.792 6.90576 21.792C6.90476 21.792 6.90276 21.792 6.90276 21.793H6.90176C6.90176 21.793 6.90176 21.793 6.90076 21.793C6.89776 21.796 6.89776 21.796 6.97976 22.34ZM7.13176 26.388C7.15776 26.691 7.42476 26.915 7.72776 26.888C8.03076 26.862 8.25476 26.595 8.22776 26.292L7.13176 26.388ZM10.4798 24.44L10.4068 24.985C10.5708 25.007 10.7368 24.953 10.8578 24.839C10.9788 24.725 11.0408 24.563 11.0278 24.397L10.4798 24.44ZM6.89776 21.796C6.59776 21.842 6.39076 22.122 6.43676 22.422C6.48276 22.722 6.76276 22.929 7.06276 22.883L6.89776 21.796Z" fill="#F4AC7D"/>
<path d="M28.6248 43.601C24.4828 43.786 19.5708 42.513 16.1448 40.223L15.5338 41.137C19.1678 43.567 24.3158 44.894 28.6738 44.699L28.6248 43.601ZM16.1458 40.223C15.8928 40.054 15.5518 40.122 15.3828 40.375C15.2138 40.628 15.2818 40.969 15.5348 41.138L16.1458 40.223ZM28.6748 44.699C28.9778 44.685 29.2128 44.428 29.1998 44.125C29.1868 43.822 28.9288 43.587 28.6258 43.6L28.6748 44.699Z" fill="#1B1464"/>
</g>
<defs>
<clipPath id="clip0_449_8497">
<rect x="-0.000244141" width="50" height="50" rx="25" fill="white"/>
</clipPath>
</defs>
</svg>
