<svg width="50" height="50" viewBox="0 0 50 50" fill="none" xmlns="http://www.w3.org/2000/svg">
<g clip-path="url(#clip0_449_8412)">
<rect x="-0.000244141" width="50" height="50" rx="25" fill="white"/>
<path d="M49.9998 0H-0.000244141V50H49.9998V0Z" fill="#444DF2"/>
<path d="M39.9798 29.71C40.4598 30.81 41.2298 31.76 41.8198 32.8C42.4098 33.84 42.8098 35.09 42.4798 36.24C42.7698 36.31 42.9998 35.98 43.1098 35.7C43.7498 33.99 43.0598 31.2 42.4398 29.54C41.6498 27.41 39.9498 25.57 39.8598 23.3C39.0998 25.32 39.0998 27.72 39.9798 29.71Z" fill="#797EF3"/>
<path d="M38.7197 7.37012C40.0797 9.02012 41.1397 11.0401 41.0997 13.1801C41.0797 13.9301 40.9297 14.6601 40.7797 15.3901C40.4697 16.8901 40.1597 18.3801 39.8497 19.8801C39.7697 20.2501 39.6997 20.6201 39.4997 20.9401C39.0397 21.6901 37.9897 21.9301 37.1697 21.6301C36.3497 21.3301 35.7397 20.5801 35.4197 19.7701C34.9197 18.5301 34.9797 17.1101 35.3497 15.8301C35.7197 14.5401 36.3797 13.3601 37.0597 12.2101C37.5697 11.3501 38.1097 10.4801 38.9097 9.88012L38.7197 7.37012Z" fill="#797EF3"/>
<path d="M30.8897 50.0001H20.1697C20.1597 50.0001 20.1597 50.0001 20.1497 50.0001C18.3397 49.9101 16.5097 49.9701 14.6897 49.9901C14.3297 49.9901 13.9697 50.0001 13.5997 50.0001C13.6697 49.7601 13.7397 49.5301 13.7997 49.3001C14.9397 45.3501 15.4897 41.5201 15.6897 37.4701C15.7297 36.6901 15.7497 35.9001 15.7697 35.1101C16.0397 35.1901 16.3097 35.2601 16.5897 35.3301C16.6497 35.3501 16.6997 35.3601 16.7597 35.3701C17.2197 35.4801 17.6797 35.5801 18.1497 35.6501C22.2297 36.3501 26.4397 35.9101 30.5897 35.8601C32.2297 35.8401 31.4797 39.0501 30.8297 41.5601C30.8297 41.5701 30.8197 41.5801 30.8197 41.5901C30.5297 42.6801 30.2697 43.6401 30.2297 44.1401C30.0797 46.1101 30.2297 48.1501 30.8897 50.0001Z" fill="#E8C5AA"/>
<path d="M34.5498 8.79007C33.5998 8.11007 32.4598 7.68007 31.2498 7.26007C25.8698 5.39007 19.2298 5.95007 15.0398 10.1301C13.4398 11.7201 12.2898 13.7401 11.6798 15.9201C11.0198 18.2701 11.3598 20.3501 11.5098 22.7201C11.7398 26.4801 12.3298 30.4601 14.7698 33.3301C18.8998 38.1901 25.3998 41.2401 31.7298 41.6501C33.6998 41.7801 35.8898 41.5201 37.5898 40.4601C38.6098 39.8201 39.4498 38.8401 39.8498 37.6901C40.1198 36.9101 39.9998 36.0201 40.1398 35.2001C40.4098 33.5801 40.9698 32.0301 41.1698 30.4001C41.3798 28.6801 41.3398 26.9401 41.1898 25.2201C41.0998 24.1601 41.0698 23.0701 40.7898 22.0401C40.5098 21.0001 39.9798 20.0701 39.6598 19.0301C39.0198 16.9401 38.4198 14.6501 37.4298 12.7001C36.7298 11.3301 35.8098 9.68007 34.5498 8.79007Z" fill="#F4D3B8"/>
<path d="M32.3832 23.4833C33.1631 23.3015 33.5463 22.0858 33.239 20.768C32.9317 19.4502 32.0503 18.5294 31.2704 18.7112C30.4905 18.8931 30.1074 20.1088 30.4147 21.4266C30.722 22.7444 31.6033 23.6652 32.3832 23.4833Z" fill="#1B1464"/>
<path d="M38.2107 20.9381C38.8237 20.7951 39.1267 19.8461 38.8877 18.8191C38.6487 17.7921 37.9567 17.0751 37.3437 17.2181C36.7307 17.3611 36.4277 18.3101 36.6677 19.3371C36.9067 20.3641 37.5977 21.0811 38.2107 20.9381Z" fill="#1B1464"/>
<path d="M39.5878 24.903C39.7388 25.084 39.7698 25.412 39.5528 25.967C39.3488 26.489 38.9978 27.017 38.7358 27.399L39.6438 28.02C39.9018 27.643 40.3218 27.021 40.5768 26.367C40.8198 25.747 40.9998 24.875 40.4318 24.196L39.5878 24.903ZM37.4798 24.055C37.8928 24.256 38.4288 24.371 38.7718 24.474C39.1678 24.592 39.4278 24.716 39.5938 24.909L40.4278 24.192C40.0438 23.745 39.5188 23.549 39.0868 23.42C38.6018 23.275 38.2678 23.215 37.9608 23.066L37.4798 24.055ZM35.1758 21.02C35.3758 22.386 36.3008 23.477 37.4778 24.054L37.9618 23.066C37.0588 22.623 36.4038 21.814 36.2638 20.86L35.1758 21.02ZM38.7358 27.399C38.5638 27.65 38.6288 27.992 38.8788 28.163C39.1288 28.334 39.4718 28.27 39.6428 28.02L38.7358 27.399ZM40.0098 24.55L40.4318 24.197C40.4298 24.195 40.4288 24.193 40.4268 24.192L40.0098 24.55ZM37.7198 23.56L37.4778 24.054C37.4788 24.054 37.4788 24.055 37.4798 24.055L37.7198 23.56ZM36.2638 20.86C36.2198 20.559 35.9408 20.352 35.6398 20.396C35.3388 20.44 35.1318 20.719 35.1758 21.02L36.2638 20.86Z" fill="#1B1464"/>
<path d="M33.0398 32.449C34.6658 32.331 36.6358 32.175 38.0648 30.971L37.3558 30.13C36.2448 31.066 34.6548 31.23 32.9608 31.352L33.0398 32.449ZM30.4008 32.377C31.3028 32.577 32.2238 32.508 33.0398 32.449L32.9608 31.352C32.1168 31.413 31.3578 31.463 30.6398 31.304L30.4008 32.377ZM37.6298 33.022C35.3778 33.952 32.5458 33.291 30.9308 31.475L30.1088 32.206C32.0338 34.37 35.3618 35.149 38.0498 34.039L37.6298 33.022ZM38.0638 30.971C38.2958 30.775 38.3258 30.428 38.1298 30.196C37.9338 29.964 37.5868 29.934 37.3548 30.13L38.0638 30.971ZM30.5198 31.84L30.6388 31.303C30.4058 31.251 30.1658 31.356 30.0448 31.561C29.9238 31.767 29.9498 32.027 30.1078 32.205L30.5198 31.84ZM38.0498 34.038C38.3308 33.922 38.4638 33.6 38.3478 33.32C38.2318 33.039 37.9098 32.906 37.6298 33.022L38.0498 34.038Z" fill="#1B1464"/>
<path d="M28.7207 16.6999C27.8077 17.1179 26.9207 17.8429 26.5017 18.8489L27.5167 19.2719C27.7977 18.5969 28.4307 18.0419 29.1777 17.7009L28.7207 16.6999ZM32.2977 16.2609C31.0267 16.0069 29.9197 16.1549 28.7227 16.6999L29.1777 17.7009C30.1797 17.2449 31.0527 17.1339 32.0827 17.3399L32.2977 16.2609ZM26.5017 18.8479C26.3847 19.1279 26.5177 19.4499 26.7977 19.5669C27.0777 19.6839 27.3997 19.5509 27.5167 19.2709L26.5017 18.8479ZM28.9497 17.1999L28.7217 16.6989C28.7217 16.6989 28.7207 16.6989 28.7207 16.6999L28.9497 17.1999ZM32.0817 17.3389C32.3797 17.3989 32.6697 17.2049 32.7287 16.9079C32.7887 16.6099 32.5947 16.3199 32.2977 16.2609L32.0817 17.3389Z" fill="#1B1464"/>
<path d="M36.0897 15.26C36.2497 15.786 36.2497 15.786 36.2487 15.786C36.2487 15.786 36.2487 15.786 36.2497 15.786C36.2507 15.786 36.2537 15.785 36.2567 15.784C36.2637 15.782 36.2767 15.778 36.2937 15.774C36.3277 15.765 36.3787 15.753 36.4447 15.739C36.5767 15.711 36.7627 15.68 36.9727 15.666C37.4107 15.636 37.8697 15.687 38.2027 15.902L38.7997 14.978C38.1717 14.573 37.4257 14.533 36.8997 14.569C36.6277 14.587 36.3897 14.627 36.2207 14.663C36.1357 14.681 36.0667 14.698 36.0167 14.71C35.9917 14.716 35.9727 14.722 35.9577 14.726C35.9507 14.728 35.9447 14.73 35.9407 14.731C35.9387 14.732 35.9367 14.732 35.9347 14.733C35.9337 14.733 35.9337 14.733 35.9327 14.734H35.9317C35.9297 14.734 35.9297 14.734 36.0897 15.26ZM38.2017 15.902C38.4567 16.067 38.7977 15.994 38.9617 15.738C39.1257 15.482 39.0537 15.142 38.7977 14.978L38.2017 15.902ZM35.9297 14.734C35.6387 14.822 35.4747 15.129 35.5627 15.42C35.6507 15.711 35.9577 15.875 36.2487 15.787L35.9297 14.734Z" fill="#1B1464"/>
<path d="M30.7798 11.4201C30.9598 11.6501 31.1498 11.8801 31.3398 12.1001C32.6798 13.6501 34.4798 13.5901 36.3998 13.7901C37.8298 13.9301 39.3598 14.3101 40.2398 15.4501C40.9598 16.3901 41.0798 17.6801 40.8998 18.8501C40.8298 19.3401 40.7098 19.8201 40.6598 20.3101C40.4998 21.8801 41.0798 23.4801 42.0998 24.6701C43.1198 25.8701 44.5698 26.6701 46.0898 27.0401C45.2898 26.3201 44.4798 25.5901 43.8798 24.6801C43.1998 23.6401 42.8298 22.4101 42.8398 21.1701C42.8498 19.9001 43.2398 18.6601 43.4998 17.4201C44.0798 14.6501 43.8998 11.7501 43.1198 9.04008C42.4698 6.80008 41.3498 3.72008 39.2598 2.43008C37.5398 1.36008 35.6698 0.82008 33.6198 0.98008C31.8798 1.12008 30.1298 1.93008 29.1398 3.38008C27.4398 5.87008 29.1398 9.31008 30.7798 11.4201Z" fill="#797EF3"/>
<path d="M30.2498 6.93998C30.0998 7.04998 29.9498 7.14998 29.7998 7.24998C29.5998 7.37998 29.3998 7.50998 29.1998 7.62998C29.0698 7.70998 28.9398 7.78998 28.8098 7.86998C26.7998 9.14998 24.7798 10.43 22.9498 11.96C21.7898 12.93 20.7098 13.98 19.6498 15.05C19.1698 15.53 18.5498 15.97 18.1198 16.48C17.6998 16.98 17.7098 17.51 17.6398 18.16C17.6298 18.26 17.6198 18.37 17.5998 18.47C17.2198 21.74 16.8398 25.01 16.4498 28.27C16.1698 30.63 16.4098 32.91 16.5698 35.19C16.5698 35.23 16.5798 35.27 16.5798 35.31C16.6598 36.57 16.7198 37.83 16.6498 39.12C16.6298 39.49 16.5998 39.86 16.5498 40.23C16.3898 41.61 16.2198 42.98 16.0598 44.36C15.8498 46.14 15.6298 47.96 14.8798 49.59C14.8198 49.72 14.7498 49.86 14.6798 49.99H5.19975C4.96975 49.79 4.75975 49.59 4.60975 49.35C4.01975 48.39 4.30975 46.65 4.66975 45.67C5.05975 44.64 5.73975 43.74 6.20975 42.75C6.67975 41.75 6.90975 40.53 6.37975 39.57C6.14975 39.15 5.79975 38.82 5.50975 38.44C4.21975 36.68 4.65975 34.23 5.28975 32.14C5.91975 30.05 6.68975 27.79 5.90975 25.75C5.53975 24.79 4.84975 23.98 4.41975 23.04C3.24975 20.46 4.24975 17.38 5.82975 15.03C6.47975 14.06 7.22975 13.14 7.64975 12.05C8.10975 10.86 8.13975 9.54998 8.32975 8.28998C8.51975 7.02998 8.93975 5.70998 9.94975 4.91998C10.7798 4.26998 11.8398 4.10998 12.8098 3.75998C13.7998 3.39998 14.6098 2.78998 15.4998 2.24998C17.5698 0.999983 19.9298 0.309983 22.3498 0.269983C24.1198 0.249983 25.8898 0.549983 27.5698 1.08998C28.6298 1.42998 29.2798 1.85998 29.8998 2.48998C30.2198 2.81998 30.5398 3.20998 30.8998 3.65998C31.1698 3.99998 31.4398 4.34998 31.5198 4.76998C31.6798 5.65998 30.9998 6.38998 30.2498 6.93998Z" fill="#797EF3"/>
<path d="M13.5197 20.1901C12.8797 19.4301 11.9897 18.9301 10.7697 18.9001C8.97972 18.8601 7.25972 20.0901 6.61972 21.7601C5.57972 24.4501 7.31972 27.7401 9.66972 29.1201C11.7597 30.3501 14.2097 29.6301 14.8197 27.2001C15.0897 26.1201 14.9797 24.9801 14.8797 23.8801C14.7397 22.5501 14.3397 21.1701 13.5197 20.1901Z" fill="#F4D3B8"/>
<path d="M12.3997 24.44C12.4727 23.895 12.4717 23.895 12.4717 23.895C12.4717 23.895 12.4717 23.895 12.4707 23.895H12.4697C12.4687 23.895 12.4677 23.895 12.4667 23.895C12.4637 23.895 12.4607 23.894 12.4567 23.894C12.4487 23.893 12.4377 23.892 12.4247 23.89C12.3977 23.887 12.3607 23.883 12.3137 23.88C12.2207 23.873 12.0907 23.865 11.9367 23.864C11.6317 23.862 11.2117 23.886 10.7867 23.996C10.3657 24.105 9.89274 24.311 9.54074 24.709C9.17374 25.123 8.99074 25.685 9.05174 26.388L10.1477 26.293C10.1087 25.846 10.2257 25.595 10.3647 25.438C10.5187 25.264 10.7587 25.139 11.0627 25.061C11.3627 24.983 11.6797 24.963 11.9317 24.964C12.0557 24.965 12.1577 24.971 12.2287 24.976C12.2637 24.979 12.2907 24.981 12.3077 24.983C12.3167 24.984 12.3227 24.985 12.3257 24.985C12.3277 24.985 12.3287 24.985 12.3287 24.985C12.3267 24.985 12.3267 24.985 12.3997 24.44ZM8.89974 22.34C8.98174 22.884 8.98174 22.884 8.98174 22.884C8.98174 22.884 8.98374 22.884 8.98574 22.883C8.98974 22.882 8.99674 22.882 9.00574 22.88C9.02474 22.878 9.05474 22.874 9.09474 22.87C9.17374 22.862 9.28974 22.854 9.43074 22.851C9.71474 22.845 10.0847 22.863 10.4497 22.949C10.8167 23.035 11.1477 23.183 11.3917 23.413C11.6237 23.633 11.8117 23.959 11.8527 24.48L12.9497 24.396C12.8897 23.618 12.5907 23.031 12.1477 22.613C11.7167 22.206 11.1847 21.991 10.7027 21.877C10.2177 21.763 9.74974 21.743 9.40974 21.75C9.23774 21.753 9.09474 21.764 8.99274 21.773C8.94174 21.778 8.90074 21.783 8.87174 21.786C8.85674 21.788 8.84574 21.789 8.83674 21.791C8.83274 21.792 8.82874 21.792 8.82574 21.792C8.82474 21.792 8.82274 21.792 8.82274 21.793H8.82174C8.82174 21.793 8.82174 21.793 8.82074 21.793C8.81774 21.796 8.81774 21.796 8.89974 22.34ZM9.05174 26.388C9.07774 26.691 9.34474 26.915 9.64774 26.888C9.95074 26.862 10.1747 26.595 10.1477 26.292L9.05174 26.388ZM12.3997 24.44L12.3267 24.985C12.4907 25.007 12.6567 24.953 12.7777 24.839C12.8987 24.725 12.9607 24.563 12.9477 24.397L12.3997 24.44ZM8.81774 21.796C8.51774 21.842 8.31074 22.122 8.35674 22.422C8.40274 22.722 8.68274 22.929 8.98274 22.883L8.81774 21.796Z" fill="#EABC97"/>
<path d="M14.8298 13.6901C15.4398 11.9801 16.4598 10.3601 17.4998 8.90009C18.5098 7.47009 19.8798 6.30009 21.4498 5.52009C22.9198 4.80009 24.6198 4.42009 26.1998 4.84009C28.7798 5.53009 30.3498 8.75009 29.0598 11.1901C28.5498 12.1601 27.5798 12.7901 26.6798 13.4001C23.7898 15.3801 20.9598 17.9201 20.2198 21.3401C19.7598 23.4501 20.1698 25.6401 19.8298 27.7601C19.5598 29.3901 18.7998 30.7701 18.3198 32.3001C17.8098 33.8801 18.0798 35.7401 18.5498 37.3001C19.0798 39.0501 19.9498 40.6601 20.7998 42.2801C21.4298 43.4801 22.0398 45.0001 21.2598 46.1101C21.6398 45.0901 21.2198 43.9201 20.5398 43.0701C19.8598 42.2201 18.9498 41.5901 18.1498 40.8501C16.2998 39.1201 15.0898 36.7301 14.7398 34.2301C14.5898 33.1901 14.4698 32.0701 14.3998 31.0101C14.3198 29.7401 14.8498 28.4801 14.9898 27.2201C15.2498 24.8401 14.1398 23.0101 13.9298 20.8001C13.7098 18.4801 14.0398 15.9101 14.8298 13.6901Z" fill="#797EF3"/>
<path d="M30.3498 41.6501C30.3498 41.1001 30.3498 41.1001 30.3498 41.1001C30.3488 41.1001 30.3478 41.1001 30.3448 41.1001C30.3398 41.1001 30.3318 41.1001 30.3198 41.1001C30.2968 41.0991 30.2608 41.0981 30.2118 41.0961C30.1148 41.0921 29.9688 41.0831 29.7778 41.0641C29.3968 41.0281 28.8398 40.9541 28.1518 40.8061C26.7748 40.5101 24.8748 39.9151 22.8028 38.7231L22.2548 39.6771C24.4418 40.9351 26.4528 41.5661 27.9208 41.8821C28.6548 42.0401 29.2548 42.1201 29.6738 42.1601C29.8838 42.1801 30.0488 42.1901 30.1628 42.1951C30.2198 42.1981 30.2648 42.1991 30.2958 42.2001C30.3118 42.2001 30.3238 42.2011 30.3328 42.2011C30.3368 42.2011 30.3408 42.2011 30.3438 42.2011C30.3448 42.2011 30.3468 42.2011 30.3468 42.2011H30.3478C30.3498 42.2001 30.3498 42.2001 30.3498 41.6501ZM22.8038 38.7231C22.5408 38.5721 22.2038 38.6621 22.0528 38.9261C21.9018 39.1901 21.9918 39.5261 22.2558 39.6771L22.8038 38.7231ZM30.3498 42.2001C30.6538 42.2001 30.8998 41.9541 30.8998 41.6501C30.8998 41.3461 30.6538 41.1001 30.3498 41.1001V42.2001Z" fill="#1B1464"/>
</g>
<defs>
<clipPath id="clip0_449_8412">
<rect x="-0.000244141" width="50" height="50" rx="25" fill="white"/>
</clipPath>
</defs>
</svg>
