<svg width="50" height="50" viewBox="0 0 50 50" fill="none" xmlns="http://www.w3.org/2000/svg">
<g clip-path="url(#clip0_449_8582)">
<rect x="-0.000244141" width="50" height="50" rx="25" fill="white"/>
<path d="M49.9998 0H-0.000244141V50H49.9998V0Z" fill="#797EF3"/>
<path d="M38.4997 22.8401C38.1897 22.0601 38.1597 21.1901 38.1297 20.3501C38.0997 19.3301 38.2597 18.2501 38.7797 17.4401C39.1797 16.8101 39.8097 16.3401 40.7197 16.2001C41.3197 16.1101 42.2197 16.1501 42.6297 16.6401C43.0697 17.1601 43.2797 18.1101 43.3097 18.7701C43.3497 19.6501 43.0997 20.5001 42.8597 21.3301C42.5897 22.2401 42.3397 24.1601 41.2097 24.3901C40.0197 24.6501 38.9197 23.9201 38.4997 22.8401Z" fill="#D9A48E"/>
<path d="M34.4297 49.9999H12.1797C12.2597 49.6599 12.3397 49.3199 12.4197 48.9799C14.0097 42.1599 14.6297 35.5499 14.7197 28.3999C20.3497 30.4799 26.2697 29.5899 32.0797 29.4999C34.2397 29.4699 33.5197 31.9199 33.5397 34.2099C33.5697 37.0699 33.6797 39.9199 33.8497 42.7599C33.9997 45.1799 34.1897 47.5999 34.4297 49.9999Z" fill="#D9A48E"/>
<path d="M40.4298 13.7201C40.9998 16.4701 40.8398 19.3701 41.0298 22.2801C41.1098 23.5501 41.2298 24.8101 41.3998 26.0701C41.9298 29.9501 42.9398 34.1101 41.2298 37.6301C39.9698 40.2201 37.3698 41.9801 34.5798 42.7201C32.5598 43.2601 30.4798 43.2801 28.4098 43.1001C25.1998 42.8201 21.8298 42.0101 18.9298 40.4201C17.1498 39.4501 15.5498 38.1801 14.2698 36.5801C12.5898 34.4601 12.1298 32.6001 11.8298 30.0301C10.8198 21.4001 5.64977 11.5701 15.1798 5.6201C22.1698 1.2501 33.7898 2.1701 38.6198 9.3301C39.5798 10.7301 40.1198 12.2001 40.4298 13.7201Z" fill="#E5B69E"/>
<path d="M26.5252 25.4498C27.3106 25.2932 27.7327 24.0904 27.468 22.7635C27.2034 21.4365 26.3521 20.4877 25.5668 20.6444C24.7814 20.801 24.3593 22.0037 24.624 23.3307C24.8887 24.6577 25.7399 25.6064 26.5252 25.4498Z" fill="#1B1464"/>
<path d="M35.6843 22.9085C36.4696 22.7519 36.8918 21.5492 36.6271 20.2222C36.3624 18.8952 35.5112 17.9465 34.7258 18.1031C33.9405 18.2597 33.5184 19.4625 33.7831 20.7894C34.0477 22.1164 34.8989 23.0652 35.6843 22.9085Z" fill="#1B1464"/>
<path d="M22.9578 18.894C23.3918 18.555 24.1058 18.198 24.8498 18.051C25.5978 17.904 26.2748 17.986 26.7518 18.376L27.4478 17.524C26.6148 16.844 25.5518 16.792 24.6378 16.972C23.7198 17.153 22.8478 17.585 22.2818 18.027L22.9578 18.894ZM26.7518 18.376C26.9868 18.568 27.3338 18.533 27.5258 18.298C27.7178 18.063 27.6828 17.716 27.4478 17.524L26.7518 18.376ZM22.2818 18.026C22.0418 18.213 21.9998 18.558 22.1868 18.798C22.3738 19.038 22.7188 19.08 22.9588 18.893L22.2818 18.026Z" fill="#1B1464"/>
<path d="M32.0797 14.96C32.4057 15.403 32.4057 15.403 32.4057 15.403C32.4057 15.403 32.4067 15.402 32.4077 15.402C32.4097 15.4 32.4137 15.397 32.4207 15.393C32.4327 15.384 32.4527 15.371 32.4797 15.353C32.5337 15.318 32.6147 15.267 32.7177 15.21C32.9257 15.095 33.2127 14.959 33.5387 14.867C34.1907 14.683 34.9197 14.687 35.5417 15.278L36.2997 14.481C35.2907 13.522 34.1007 13.566 33.2397 13.809C32.8097 13.931 32.4427 14.105 32.1857 14.248C32.0557 14.32 31.9517 14.384 31.8787 14.432C31.8417 14.456 31.8127 14.476 31.7917 14.49C31.7817 14.497 31.7727 14.503 31.7667 14.508C31.7637 14.51 31.7607 14.512 31.7587 14.514C31.7577 14.515 31.7567 14.515 31.7557 14.516L31.7547 14.517C31.7537 14.517 31.7537 14.517 32.0797 14.96ZM35.5407 15.279C35.7607 15.488 36.1087 15.48 36.3187 15.259C36.5277 15.039 36.5197 14.691 36.2987 14.481L35.5407 15.279ZM31.7537 14.517C31.5097 14.697 31.4577 15.042 31.6377 15.286C31.8177 15.53 32.1627 15.582 32.4067 15.402L31.7537 14.517Z" fill="#1B1464"/>
<path d="M26.9858 33.9741C28.8888 35.3611 31.4078 35.8431 33.6878 35.2521L33.4118 34.1871C31.4518 34.6961 29.2708 34.2781 27.6338 33.0851L26.9858 33.9741ZM33.6878 35.2521C33.9818 35.1761 34.1588 34.8761 34.0818 34.5821C34.0058 34.2881 33.7058 34.1111 33.4118 34.1881L33.6878 35.2521ZM27.6338 33.0861C27.3888 32.9071 27.0438 32.9611 26.8658 33.2071C26.6878 33.4531 26.7408 33.7971 26.9868 33.9751L27.6338 33.0861Z" fill="#1B1464"/>
<path d="M32.5188 21.7489C32.4168 21.2549 32.4478 20.7409 32.4888 20.1379L31.3918 20.0639C31.3528 20.6409 31.3038 21.3069 31.4418 21.9729L32.5188 21.7489ZM34.1158 24.5879C33.3358 23.7789 32.7418 22.8389 32.5188 21.7499L31.4408 21.9709C31.7178 23.3209 32.4448 24.4409 33.3238 25.3529L34.1158 24.5879ZM34.5668 28.1159C35.0708 27.4939 35.2128 26.8299 35.0658 26.1839C34.9268 25.5729 34.5418 25.0359 34.1178 24.5909L33.3208 25.3489C33.6868 25.7329 33.9178 26.0969 33.9928 26.4279C34.0608 26.7239 34.0178 27.0459 33.7118 27.4229L34.5668 28.1159ZM30.1488 28.7479C30.7838 29.0119 31.5978 29.1769 32.3858 29.1279C33.1718 29.0789 34.0068 28.8079 34.5668 28.1169L33.7128 27.4239C33.4138 27.7929 32.9228 27.9919 32.3168 28.0299C31.7128 28.0679 31.0668 27.9379 30.5708 27.7319L30.1488 28.7479ZM32.4888 20.1369C32.5098 19.8339 32.2808 19.5719 31.9768 19.5509C31.6738 19.5299 31.4118 19.7589 31.3908 20.0629L32.4888 20.1369ZM31.9798 21.8599L32.5188 21.7499V21.7489L31.9798 21.8599ZM33.7198 24.9699L34.1178 24.5909C34.1168 24.5899 34.1158 24.5889 34.1148 24.5879L33.7198 24.9699ZM30.5708 27.7319C30.2908 27.6149 29.9688 27.7479 29.8518 28.0289C29.7348 28.3089 29.8678 28.6309 30.1488 28.7479L30.5708 27.7319Z" fill="#1B1464"/>
<path d="M34.4898 34.9C34.4898 34.92 34.4798 34.94 34.4798 34.96C34.4198 35.35 34.2198 35.7 33.9698 36C33.1198 37.02 31.7098 37.49 30.3998 37.33C29.0898 37.17 27.8798 36.43 27.0098 35.43C26.5698 34.92 26.2098 34.33 26.1098 33.67C26.0698 33.4 26.0898 33.09 26.2998 32.92C26.3798 32.85 26.4798 32.81 26.5798 32.78C27.7798 32.39 29.0598 32.89 30.2798 33.2C30.9998 33.38 31.7398 33.5 32.4798 33.58C33.4598 33.69 34.6698 33.48 34.4898 34.9ZM41.0398 22.28C40.9098 22.62 40.8298 22.97 40.7598 23.32C40.4698 24.86 40.6098 26.47 40.1298 27.98C39.6998 29.33 38.5698 30.55 37.4998 31.44C37.2598 31.64 36.9998 31.84 36.6998 31.95C35.5898 32.36 34.4998 31.74 33.4098 31.72C32.6698 31.7 31.9298 31.8 31.1898 31.76C29.5998 31.67 28.0698 30.91 26.4698 30.98C24.9298 31.05 23.7098 32.07 22.2698 32.52C21.3198 32.82 20.2598 32.65 19.3798 32.18C18.6198 31.78 17.8098 31.14 17.3998 30.37C16.9298 29.48 16.8298 28.33 16.4798 27.38C16.2698 26.8 15.1298 24.38 14.8598 26.15C14.6898 27.24 14.6398 28.31 14.2398 29.36C14.0098 29.97 13.6998 30.55 13.4998 31.17C12.1298 35.47 15.4898 38.55 18.9198 40.43C21.8198 42.01 25.1898 42.83 28.3998 43.11C30.4598 43.29 32.5498 43.26 34.5698 42.73C37.3498 41.99 39.9598 40.22 41.2198 37.64C42.9298 34.12 41.9198 29.96 41.3898 26.08C41.2398 24.81 41.1198 23.55 41.0398 22.28Z" fill="#1B1464"/>
<path d="M13.4598 21.2999C12.7298 20.6299 11.7798 20.2499 10.5598 20.3899C8.77976 20.5799 7.23975 22.0299 6.81975 23.7699C6.13975 26.5699 8.29976 29.5999 10.8098 30.6699C13.0398 31.6199 15.3798 30.5899 15.6598 28.0899C15.7898 26.9799 15.5298 25.8699 15.2798 24.7899C14.9798 23.4799 14.3998 22.1499 13.4598 21.2999Z" fill="#E5B69E"/>
<path d="M12.8897 25.65C12.8897 25.1 12.8897 25.1 12.8897 25.1C12.8897 25.1 12.8897 25.1 12.8887 25.1H12.8877C12.8867 25.1 12.8857 25.1 12.8847 25.1C12.8817 25.1 12.8787 25.1 12.8747 25.1C12.8667 25.1 12.8557 25.1 12.8427 25.101C12.8157 25.102 12.7777 25.103 12.7317 25.105C12.6387 25.11 12.5087 25.12 12.3557 25.139C12.0527 25.178 11.6387 25.256 11.2317 25.421C10.8277 25.584 10.3867 25.85 10.0887 26.291C9.77869 26.75 9.66968 27.33 9.82268 28.019L10.8967 27.78C10.7997 27.344 10.8827 27.081 10.9997 26.906C11.1297 26.714 11.3517 26.558 11.6437 26.44C11.9317 26.323 12.2437 26.261 12.4937 26.23C12.6167 26.214 12.7197 26.207 12.7897 26.203C12.8247 26.201 12.8517 26.2 12.8697 26.2C12.8787 26.2 12.8847 26.2 12.8877 26.2C12.8897 26.2 12.8907 26.2 12.8907 26.2C12.8897 26.2 12.8897 26.2 12.8897 25.65ZM9.14968 24.03C9.30268 24.558 9.30269 24.558 9.30269 24.558C9.30269 24.558 9.30468 24.558 9.30668 24.557C9.31068 24.556 9.31669 24.554 9.32669 24.552C9.34569 24.547 9.37469 24.54 9.41369 24.531C9.49169 24.513 9.60568 24.49 9.74468 24.468C10.0267 24.425 10.3947 24.394 10.7687 24.431C11.1447 24.468 11.4907 24.571 11.7617 24.767C12.0197 24.953 12.2467 25.251 12.3537 25.762L13.4307 25.538C13.2717 24.774 12.8997 24.232 12.4067 23.875C11.9267 23.528 11.3717 23.385 10.8777 23.336C10.3827 23.287 9.91569 23.329 9.57869 23.38C9.40869 23.406 9.26769 23.435 9.16769 23.458C9.11769 23.47 9.07768 23.48 9.04868 23.487C9.03468 23.491 9.02269 23.494 9.01469 23.496C9.01069 23.497 9.00669 23.498 9.00469 23.499C9.00369 23.499 9.00269 23.5 9.00169 23.5H9.00069C9.00069 23.5 9.00068 23.5 8.99968 23.5C8.99668 23.502 8.99668 23.502 9.14968 24.03ZM9.82268 28.019C9.88868 28.316 10.1827 28.502 10.4787 28.437C10.7747 28.372 10.9617 28.077 10.8967 27.781L9.82268 28.019ZM12.8897 25.65V26.2C13.0557 26.2 13.2117 26.125 13.3167 25.997C13.4207 25.869 13.4627 25.7 13.4287 25.538L12.8897 25.65ZM8.99668 23.502C8.70468 23.587 8.53668 23.892 8.62168 24.183C8.70668 24.475 9.01169 24.643 9.30269 24.558L8.99668 23.502Z" fill="#DB9F7F"/>
<path d="M12.1997 11.5901C11.5597 11.5901 11.5597 12.5901 12.1997 12.5901C12.8497 12.5901 12.8497 11.5901 12.1997 11.5901Z" fill="#DB9F7F"/>
<path d="M13.0498 9.83008C12.4098 9.83008 12.4098 10.8301 13.0498 10.8301C13.6898 10.8301 13.6898 9.83008 13.0498 9.83008Z" fill="#DB9F7F"/>
<path d="M14.0897 11.52C13.4497 11.52 13.4497 12.52 14.0897 12.52C14.7297 12.52 14.7297 11.52 14.0897 11.52Z" fill="#DB9F7F"/>
</g>
<defs>
<clipPath id="clip0_449_8582">
<rect x="-0.000244141" width="50" height="50" rx="25" fill="white"/>
</clipPath>
</defs>
</svg>
