<svg width="50" height="50" viewBox="0 0 50 50" fill="none" xmlns="http://www.w3.org/2000/svg">
<g clip-path="url(#clip0_281_387)">
<rect x="-0.000244141" width="50" height="50" rx="25" fill="white"/>
<path d="M49.9998 0H-0.000244141V50H49.9998V0Z" fill="#797EF3"/>
<path d="M30.9908 49.9999H12.6288C13.0738 48.3689 13.4348 46.9239 13.5018 46.6209C14.0868 43.9399 14.4568 41.2199 14.6048 38.4909C14.6818 37.0759 14.6998 35.6579 14.6578 34.2419C14.6288 33.2609 14.1818 31.6929 14.6268 30.7579C15.4788 28.9649 19.4398 31.0699 21.1988 31.2989C24.2198 31.6929 27.2918 31.5079 30.3228 31.3239C29.8618 37.5489 30.0878 43.8149 30.9908 49.9999Z" fill="#797EF3"/>
<path d="M43.7648 27.9889C44.0478 29.2699 44.5918 30.5119 44.6018 31.8249C44.3298 31.8909 44.0768 31.6739 43.8898 31.4659C41.9128 29.2629 41.2848 26.1879 40.8698 23.2569C40.6138 21.4469 39.9568 18.4409 40.8148 16.7269C41.2518 15.8539 42.8338 14.8389 43.7378 15.6789C44.8068 16.6739 43.9448 20.1819 43.8028 21.4589C43.5618 23.6249 43.2878 25.8329 43.7648 27.9889Z" fill="#444DF2"/>
<path d="M28.1718 3.34393C27.3288 2.86493 26.4538 2.44193 25.5468 2.08593C21.6738 0.567927 17.1248 0.413927 13.4568 2.37893C10.2298 4.10793 7.96979 7.30693 6.75279 10.7599C5.53579 14.2129 5.26779 17.9259 5.24879 21.5859C5.22479 26.0359 5.55379 30.4829 6.10179 34.8979C6.45179 37.7219 7.32579 44.9819 11.1048 45.1319C15.7438 45.3149 20.3998 45.0849 24.9988 44.4489C28.9158 43.9079 35.3698 46.8899 38.4998 44.1999C40.3688 42.5929 39.6868 36.8179 40.4888 34.4869C41.4638 31.6549 42.1908 28.7099 42.2778 25.7159C42.3928 21.7689 41.3658 17.7939 39.3528 14.3969C38.2818 12.5899 36.9448 10.9519 35.5188 9.40993C33.3558 7.07193 30.9288 4.90993 28.1718 3.34393Z" fill="#444DF2"/>
<path d="M30.9908 49.9999H12.6288C13.0738 48.3689 13.4348 46.9239 13.5018 46.6209C14.0868 43.9399 14.4568 41.2199 14.6048 38.4909C14.6818 37.0759 14.6998 35.6579 14.6578 34.2419C14.6288 33.2609 14.1818 31.6929 14.6268 30.7579C15.4788 28.9649 19.4398 31.0699 21.1988 31.2989C24.2198 31.6929 27.2918 31.5079 30.3228 31.3239C29.8618 37.5489 30.0878 43.8149 30.9908 49.9999Z" fill="#E8AE8E"/>
<path d="M14.8728 37.419C17.9288 40.701 22.1368 42.782 26.6538 43.948C30.9538 45.058 36.0168 45.189 39.3088 42.208C42.0748 39.704 42.8288 35.696 43.1128 31.975C43.4528 27.517 43.3448 23.037 43.1498 18.571C43.0648 16.629 42.9618 14.674 42.4958 12.788C41.7908 9.93601 40.0298 6.14601 37.2418 4.88001C33.8738 3.35101 29.8388 2.94801 26.1948 3.36001C23.5578 3.65801 20.8748 3.97401 18.4508 5.05101C16.2728 6.01901 13.4498 7.25401 12.2868 9.41501C10.8118 12.155 9.97277 15.323 9.61577 18.401C9.07377 23.069 9.70677 27.887 11.5218 32.227C12.3528 34.22 13.4958 35.941 14.8728 37.419Z" fill="#F4C19F"/>
<path d="M12.3077 19.195C11.6687 18.44 10.7757 17.937 9.55675 17.909C7.76575 17.868 6.05075 19.102 5.40275 20.773C4.35975 23.464 6.10374 26.7479 8.45474 28.136C10.5427 29.3679 12.9937 28.65 13.6027 26.213C13.8727 25.132 13.7667 23.998 13.6577 22.889C13.5277 21.553 13.1277 20.165 12.3077 19.195Z" fill="#F4C19F"/>
<path d="M8.3827 25.887C8.1007 25.887 7.8607 25.671 7.8357 25.385C7.7547 24.453 8.1197 23.893 8.4397 23.587C9.0227 23.03 9.87369 22.885 10.4907 22.862C10.3977 22.651 10.2617 22.475 10.0807 22.331C9.2587 21.677 7.78069 21.879 7.76569 21.881C7.46569 21.927 7.1847 21.72 7.1397 21.42C7.0937 21.12 7.3007 20.839 7.6007 20.794C7.6797 20.782 9.5577 20.511 10.7647 21.47C11.3427 21.93 11.6687 22.578 11.7317 23.395C11.7447 23.56 11.6817 23.723 11.5617 23.837C11.4407 23.951 11.2757 24.004 11.1107 23.983C10.7447 23.936 9.68569 23.916 9.19769 24.384C8.98369 24.59 8.8967 24.886 8.9317 25.29C8.9577 25.593 8.7337 25.859 8.4317 25.886C8.4147 25.886 8.3987 25.887 8.3827 25.887Z" fill="#EAAA7F"/>
<path d="M21.3437 16.6661C21.3407 16.6701 21.3387 16.6741 21.3357 16.6781C21.0057 17.1611 19.8387 17.1131 19.3347 17.1771C18.9157 17.2301 12.9737 17.7561 12.9457 17.4771C13.1727 19.7921 13.3997 22.1081 13.6267 24.4231C13.9147 27.3651 14.1597 30.5251 12.6917 33.0911C13.2287 29.1781 12.5247 25.1041 10.7057 21.5981C10.1267 20.4811 9.42774 19.3951 9.18174 18.1611C8.97074 17.0991 9.11174 15.9991 9.33574 14.9401C9.89574 12.3021 10.9767 9.77611 12.4987 7.55011C15.2937 3.46411 20.3657 1.37811 25.1807 1.03611C27.3207 0.88411 29.4727 0.90611 31.6087 1.10211C34.6687 1.38311 38.1537 2.37911 40.1737 4.84811C41.3627 6.30211 42.1237 8.05011 42.8697 9.77411C43.0397 10.1671 45.4057 17.4061 44.8067 17.2751C43.5887 17.0101 42.3717 16.7451 41.1537 16.4801C39.8467 16.1961 38.5387 15.9111 37.2127 15.7361C34.5037 15.3791 31.7647 15.4891 29.0507 15.7271C28.3397 15.7891 23.9067 16.8021 23.5527 15.7811C22.9667 14.0911 22.3797 12.4011 21.7937 10.7111C21.6977 10.4351 21.2947 10.1411 21.2017 10.4181C21.2037 11.5791 21.9097 15.7911 21.3437 16.6661Z" fill="#444DF2"/>
<path d="M31.6328 31.355C31.3298 31.355 31.0838 31.11 31.0828 30.807C31.0818 30.503 31.3268 30.256 31.6298 30.255C31.6658 30.255 35.1798 30.211 35.3798 28.263C35.4588 27.489 35.2268 27.22 34.8058 26.733C34.1138 25.933 33.1668 24.837 33.2298 21.289C33.2348 20.989 33.4798 20.749 33.7798 20.749C33.7828 20.749 33.7868 20.749 33.7898 20.749C34.0938 20.754 34.3358 21.005 34.3298 21.309C34.2738 24.437 35.0298 25.311 35.6378 26.014C36.1118 26.562 36.6018 27.13 36.4738 28.376C36.1728 31.304 31.8198 31.355 31.6348 31.356C31.6348 31.355 31.6338 31.355 31.6328 31.355Z" fill="#1B1464"/>
<path d="M27.2159 26.0426C28.0178 25.9899 28.596 24.854 28.5075 23.5054C28.419 22.1568 27.6972 21.1062 26.8953 21.1588C26.0934 21.2115 25.5151 22.3474 25.6036 23.696C25.6922 25.0446 26.414 26.0952 27.2159 26.0426Z" fill="#1B1464"/>
<path d="M38.3265 25.7303C39.1283 25.6777 39.7066 24.5418 39.6181 23.1932C39.5296 21.8445 38.8078 20.794 38.0059 20.8466C37.204 20.8992 36.6257 22.0352 36.7142 23.3838C36.8028 24.7324 37.5246 25.7829 38.3265 25.7303Z" fill="#1B1464"/>
<path d="M41.0638 20.6009C40.9508 20.6009 40.8378 20.5669 40.7398 20.4949C38.3388 18.7399 36.1798 19.2859 36.0888 19.3099C35.7958 19.3879 35.4948 19.2149 35.4158 18.9219C35.3368 18.6299 35.5078 18.3289 35.7988 18.2479C35.9098 18.2179 38.5408 17.5249 41.3888 19.6059C41.6338 19.7849 41.6878 20.1289 41.5088 20.3749C41.4008 20.5229 41.2338 20.6009 41.0638 20.6009Z" fill="#1B1464"/>
<path d="M21.5417 21.1979C21.4557 21.1979 21.3677 21.1779 21.2857 21.1339C21.0167 20.9919 20.9137 20.6599 21.0557 20.3909C21.1107 20.2869 22.4577 17.8579 28.1647 17.8579C28.2147 17.8579 28.2647 17.8579 28.3157 17.8589C28.6197 17.8609 28.8637 18.1089 28.8617 18.4129C28.8597 18.7149 28.6137 18.9589 28.3117 18.9589C28.3107 18.9589 28.3087 18.9589 28.3077 18.9589C23.2197 18.9219 22.0387 20.8839 22.0287 20.9039C21.9307 21.0909 21.7397 21.1979 21.5417 21.1979Z" fill="#1B1464"/>
<path d="M30.7177 36.0208C26.3647 36.0208 23.4687 32.4958 23.3387 32.3358C23.1477 32.0998 23.1847 31.7528 23.4217 31.5628C23.6577 31.3718 24.0037 31.4088 24.1947 31.6458C24.2397 31.7008 27.2947 35.3898 31.5667 34.8698C31.8687 34.8338 32.1427 35.0478 32.1787 35.3498C32.2157 35.6508 32.0007 35.9258 31.6987 35.9618C31.3647 36.0018 31.0367 36.0208 30.7177 36.0208Z" fill="#1B1464"/>
<path d="M30.0808 45.0999C23.6698 45.0999 17.1238 40.1969 16.8488 39.9879C16.6068 39.8049 16.5588 39.4599 16.7428 39.2179C16.9258 38.9759 17.2708 38.9279 17.5138 39.1109C17.5788 39.1599 24.0438 43.9989 30.0818 43.9989C30.3858 43.9989 30.6318 44.2449 30.6318 44.5489C30.6318 44.8529 30.3848 45.0999 30.0808 45.0999Z" fill="#1B1464"/>
</g>
<defs>
<clipPath id="clip0_281_387">
<rect x="-0.000244141" width="50" height="50" rx="25" fill="white"/>
</clipPath>
</defs>
</svg>
