<svg width="41" height="40" viewBox="0 0 41 40" fill="none" xmlns="http://www.w3.org/2000/svg">
<mask id="mask0_3922_2015" style="mask-type:alpha" maskUnits="userSpaceOnUse" x="8" y="8" width="25" height="24">
<rect x="8.93652" y="8" width="24" height="24" fill="#D9D9D9"/>
</mask>
<g mask="url(#mask0_3922_2015)">
<path d="M20.9365 30C19.5532 30 18.2532 29.7375 17.0365 29.2125C15.8199 28.6875 14.7615 27.975 13.8615 27.075C12.9615 26.175 12.249 25.1167 11.724 23.9C11.199 22.6833 10.9365 21.3833 10.9365 20C10.9365 18.6167 11.199 17.3167 11.724 16.1C12.249 14.8833 12.9615 13.825 13.8615 12.925C14.7615 12.025 15.8199 11.3125 17.0365 10.7875C18.2532 10.2625 19.5532 10 20.9365 10C21.6865 10 22.4157 10.0792 23.124 10.2375C23.8324 10.3958 24.5032 10.625 25.1365 10.925C25.0699 11.0917 25.0199 11.2667 24.9865 11.45C24.9532 11.6333 24.9365 11.8167 24.9365 12C24.9365 12.2333 24.9615 12.4542 25.0115 12.6625C25.0615 12.8708 25.1282 13.0667 25.2115 13.25C24.5949 12.8667 23.9282 12.5625 23.2115 12.3375C22.4949 12.1125 21.7365 12 20.9365 12C18.7199 12 16.8324 12.7792 15.274 14.3375C13.7157 15.8958 12.9365 17.7833 12.9365 20C12.9365 22.2167 13.7157 24.1042 15.274 25.6625C16.8324 27.2208 18.7199 28 20.9365 28C23.1532 28 25.0407 27.2208 26.599 25.6625C28.1574 24.1042 28.9365 22.2167 28.9365 20C28.9365 19.3333 28.8574 18.6917 28.699 18.075C28.5407 17.4583 28.3199 16.875 28.0365 16.325C28.3032 16.5417 28.5949 16.7083 28.9115 16.825C29.2282 16.9417 29.5699 17 29.9365 17C30.0199 17 30.1074 16.9958 30.199 16.9875C30.2907 16.9792 30.3782 16.9667 30.4615 16.95C30.6115 17.4333 30.7282 17.9292 30.8115 18.4375C30.8949 18.9458 30.9365 19.4667 30.9365 20C30.9365 21.3833 30.674 22.6833 30.149 23.9C29.624 25.1167 28.9115 26.175 28.0115 27.075C27.1115 27.975 26.0532 28.6875 24.8365 29.2125C23.6199 29.7375 22.3199 30 20.9365 30ZM24.4365 19C24.8699 19 25.2282 18.8583 25.5115 18.575C25.7949 18.2917 25.9365 17.9333 25.9365 17.5C25.9365 17.0667 25.7949 16.7083 25.5115 16.425C25.2282 16.1417 24.8699 16 24.4365 16C24.0032 16 23.6449 16.1417 23.3615 16.425C23.0782 16.7083 22.9365 17.0667 22.9365 17.5C22.9365 17.9333 23.0782 18.2917 23.3615 18.575C23.6449 18.8583 24.0032 19 24.4365 19ZM17.4365 19C17.8699 19 18.2282 18.8583 18.5115 18.575C18.7949 18.2917 18.9365 17.9333 18.9365 17.5C18.9365 17.0667 18.7949 16.7083 18.5115 16.425C18.2282 16.1417 17.8699 16 17.4365 16C17.0032 16 16.6449 16.1417 16.3615 16.425C16.0782 16.7083 15.9365 17.0667 15.9365 17.5C15.9365 17.9333 16.0782 18.2917 16.3615 18.575C16.6449 18.8583 17.0032 19 17.4365 19ZM20.9365 25.5C22.1199 25.5 23.1657 25.175 24.074 24.525C24.9824 23.875 25.6365 23.0333 26.0365 22H15.8365C16.2365 23.0333 16.8907 23.875 17.799 24.525C18.7074 25.175 19.7532 25.5 20.9365 25.5ZM28.9365 13H27.9365C27.6532 13 27.4157 12.9042 27.224 12.7125C27.0324 12.5208 26.9365 12.2833 26.9365 12C26.9365 11.7167 27.0324 11.4792 27.224 11.2875C27.4157 11.0958 27.6532 11 27.9365 11H28.9365V10C28.9365 9.71667 29.0324 9.47917 29.224 9.2875C29.4157 9.09583 29.6532 9 29.9365 9C30.2199 9 30.4574 9.09583 30.649 9.2875C30.8407 9.47917 30.9365 9.71667 30.9365 10V11H31.9365C32.2199 11 32.4574 11.0958 32.649 11.2875C32.8407 11.4792 32.9365 11.7167 32.9365 12C32.9365 12.2833 32.8407 12.5208 32.649 12.7125C32.4574 12.9042 32.2199 13 31.9365 13H30.9365V14C30.9365 14.2833 30.8407 14.5208 30.649 14.7125C30.4574 14.9042 30.2199 15 29.9365 15C29.6532 15 29.4157 14.9042 29.224 14.7125C29.0324 14.5208 28.9365 14.2833 28.9365 14V13Z" fill="black"/>
</g>
</svg>
