<svg width="41" height="40" viewBox="0 0 41 40" fill="none" xmlns="http://www.w3.org/2000/svg">
<mask id="mask0_3922_2019" style="mask-type:alpha" maskUnits="userSpaceOnUse" x="8" y="8" width="25" height="24">
<rect x="8.93652" y="8" width="24" height="24" fill="#D9D9D9"/>
</mask>
<g mask="url(#mask0_3922_2019)">
<path d="M15.9365 22H25.9365C26.2199 22 26.4572 21.904 26.6485 21.712C26.8405 21.5207 26.9365 21.2833 26.9365 21C26.9365 20.7167 26.8405 20.479 26.6485 20.287C26.4572 20.0957 26.2199 20 25.9365 20H15.9365C15.6532 20 15.4155 20.0957 15.2235 20.287C15.0322 20.479 14.9365 20.7167 14.9365 21C14.9365 21.2833 15.0322 21.5207 15.2235 21.712C15.4155 21.904 15.6532 22 15.9365 22ZM15.9365 19H25.9365C26.2199 19 26.4572 18.904 26.6485 18.712C26.8405 18.5207 26.9365 18.2833 26.9365 18C26.9365 17.7167 26.8405 17.479 26.6485 17.287C26.4572 17.0957 26.2199 17 25.9365 17H15.9365C15.6532 17 15.4155 17.0957 15.2235 17.287C15.0322 17.479 14.9365 17.7167 14.9365 18C14.9365 18.2833 15.0322 18.5207 15.2235 18.712C15.4155 18.904 15.6532 19 15.9365 19ZM15.9365 16H25.9365C26.2199 16 26.4572 15.9043 26.6485 15.713C26.8405 15.521 26.9365 15.2833 26.9365 15C26.9365 14.7167 26.8405 14.479 26.6485 14.287C26.4572 14.0957 26.2199 14 25.9365 14H15.9365C15.6532 14 15.4155 14.0957 15.2235 14.287C15.0322 14.479 14.9365 14.7167 14.9365 15C14.9365 15.2833 15.0322 15.521 15.2235 15.713C15.4155 15.9043 15.6532 16 15.9365 16ZM29.2365 28.3L26.9365 26H12.9365C12.3865 26 11.9159 25.8043 11.5245 25.413C11.1325 25.021 10.9365 24.55 10.9365 24V12C10.9365 11.45 11.1325 10.979 11.5245 10.587C11.9159 10.1957 12.3865 10 12.9365 10H28.9365C29.4865 10 29.9575 10.1957 30.3495 10.587C30.7409 10.979 30.9365 11.45 30.9365 12V27.575C30.9365 28.025 30.7325 28.3373 30.3245 28.512C29.9159 28.6873 29.5532 28.6167 29.2365 28.3ZM12.9365 12V24H27.7615L28.9365 25.175V12H12.9365Z" fill="black"/>
</g>
</svg>
