<svg width="41" height="40" viewBox="0 0 41 40" fill="none" xmlns="http://www.w3.org/2000/svg">
<path d="M19.2742 10L20.9408 13.3333L22.6075 10H19.2742ZM25.2408 10.3333L25.0075 14.0667L28.1075 12L25.2408 10.3333ZM13.7742 12L16.9075 14.0667L16.6742 10.3333L13.7742 12Z" fill="#4AA9FF"/>
<path d="M17.0742 30.0002H13.1409V25.7002L17.7409 26.7669C16.6409 27.9335 17.0742 30.0002 17.0742 30.0002Z" fill="#EBA352"/>
<path d="M16.7075 30H12.3075C12.3075 30 12.3742 27.8667 11.6409 26.0333L17.1409 26.8333C16.5075 28.4667 16.7075 30 16.7075 30ZM16.2742 24.1333H17.9409V16.7333C17.9409 16.2333 17.5742 15.8333 17.1075 15.8333C16.6409 15.8333 16.2742 16.2333 16.2742 16.7667V24.1333ZM14.3075 24.1333H16.2742V16.1C16.2742 15.5 15.8409 15 15.2742 15C14.7409 15 14.2742 15.5 14.2742 16.1V24.1333H14.3075Z" fill="#FFDD67"/>
<path d="M12.6077 24.1334H14.341V16.5668C14.341 16.0334 13.941 15.6001 13.4743 15.6001C13.0077 15.6001 12.6077 16.0334 12.6077 16.5668V24.1334ZM11.8077 16.7334C11.3743 16.7334 11.041 17.1334 11.041 17.6334V24.1334H12.6077V17.6334C12.6077 17.1334 12.241 16.7334 11.8077 16.7334Z" fill="#FFDD67"/>
<path d="M17.1077 15.8H16.941C17.341 15.8667 17.641 16.2667 17.641 16.7V24.1333H17.941V16.7333C17.941 16.2333 17.5743 15.8 17.1077 15.8ZM15.3077 15C15.241 15 15.2077 15 15.1743 15.0333C15.641 15.1 16.0077 15.5667 16.0077 16.1V21.4667L16.3077 21.8V16.1C16.2743 15.5 15.841 15 15.3077 15ZM13.4743 15.6H13.341C13.741 15.6667 14.041 16.0667 14.041 16.5333V21.4333L14.341 21.7667V16.5667C14.3077 16.0333 13.941 15.6 13.4743 15.6ZM11.8076 16.7333C11.741 16.7333 11.7076 16.7333 11.6743 16.7667C12.041 16.8333 12.3076 17.2 12.3076 17.6333V21.4667L12.6076 21.8V17.6333C12.6076 17.1333 12.241 16.7333 11.8076 16.7333Z" fill="#EBA352"/>
<path d="M20.7409 20.7335C20.2409 20.1669 19.2409 20.4335 18.5409 21.9002C18.0409 22.9002 17.9075 22.7002 17.6409 22.7669V21.8669C17.6409 21.8669 11.0075 21.4335 11.0075 22.4335C11.0075 22.4335 10.7075 24.9002 11.3409 26.4335C12.3075 28.7335 17.2409 29.3335 18.7742 25.4335C19.0742 24.6669 19.5075 23.8335 19.8409 23.0002C20.2742 22.0002 21.3075 21.4002 20.7409 20.7335Z" fill="#FFDD67"/>
<path d="M20.4075 20.5C21.4742 21.3 19.5075 22.8333 18.5742 25.2C17.2409 28.6 13.3409 28.6 11.7075 27.0333C13.2075 28.8 17.3742 29.1333 18.7742 25.4333C19.7075 23.0333 21.9742 21.2 20.4075 20.5Z" fill="#EBA352"/>
<path d="M17.9407 22.7331C16.6407 22.2665 13.9073 23.1665 14.274 25.7665C14.274 23.3331 16.4407 22.7665 17.6407 22.7665C17.8073 22.7665 17.9407 22.7331 17.9407 22.7331ZM24.8073 29.9998H28.7407V25.6998L24.1407 26.7665C25.2407 27.9331 24.8073 29.9998 24.8073 29.9998Z" fill="#EBA352"/>
<path d="M25.1743 30H29.5743C29.5743 30 29.5076 27.8667 30.2409 26.0333L24.7409 26.8333C25.3743 28.4667 25.1743 30 25.1743 30ZM25.6076 24.1333H23.9409V16.7333C23.9409 16.2333 24.3076 15.8333 24.7743 15.8333C25.2409 15.8333 25.6076 16.2333 25.6076 16.7667V24.1333ZM27.5743 24.1333H25.6076V16.1C25.6076 15.5 26.0409 15 26.6076 15C27.1409 15 27.6076 15.5 27.6076 16.1V24.1333H27.5743Z" fill="#FFDD67"/>
<path d="M29.2741 24.1334H27.5408V16.5668C27.5408 16.0334 27.9408 15.6001 28.4074 15.6001C28.8741 15.6001 29.2741 16.0334 29.2741 16.5668V24.1334ZM30.0741 16.7334C30.5074 16.7334 30.8408 17.1334 30.8408 17.6334V24.1334H29.2741V17.6334C29.2741 17.1334 29.6408 16.7334 30.0741 16.7334Z" fill="#FFDD67"/>
<path d="M24.7743 15.8H24.9409C24.5409 15.8667 24.2409 16.2667 24.2409 16.7V24.1333H23.9409V16.7333C23.9409 16.2333 24.3076 15.8 24.7743 15.8ZM26.5743 15C26.6409 15 26.6743 15 26.7076 15.0333C26.2409 15.1 25.8743 15.5667 25.8743 16.1V21.4667L25.5743 21.8V16.1C25.6076 15.5 26.0409 15 26.5743 15ZM28.4076 15.6H28.5409C28.1409 15.6667 27.8409 16.0667 27.8409 16.5333V21.4333L27.5409 21.7667V16.5667C27.5743 16.0333 27.9409 15.6 28.4076 15.6ZM30.0743 16.7333C30.1409 16.7333 30.1743 16.7333 30.2076 16.7667C29.8409 16.8333 29.5743 17.2 29.5743 17.6333V21.4667L29.2743 21.8V17.6333C29.2743 17.1333 29.6409 16.7333 30.0743 16.7333Z" fill="#EBA352"/>
<path d="M21.1408 20.7335C21.6408 20.1669 22.6408 20.4335 23.3408 21.9002C23.8408 22.9002 23.9742 22.7002 24.2408 22.7669V21.8669C24.2408 21.8669 30.8742 21.4335 30.8742 22.4335C30.8742 22.4335 31.1742 24.9002 30.5408 26.4335C29.5742 28.7335 24.6408 29.3335 23.1075 25.4335C22.8075 24.6669 22.3742 23.8335 22.0408 23.0002C21.6075 22.0002 20.5742 21.4002 21.1408 20.7335Z" fill="#FFDD67"/>
<path d="M21.4742 20.5C20.4075 21.3 22.3742 22.8333 23.3075 25.2C24.6409 28.6 28.5409 28.6 30.1742 27.0333C28.6742 28.8 24.5075 29.1333 23.1075 25.4333C22.1742 23.0333 19.9075 21.2 21.4742 20.5Z" fill="#EBA352"/>
<path d="M23.9409 22.7331C25.2409 22.2665 27.9743 23.1665 27.6076 25.7665C27.6076 23.3331 25.4409 22.7665 24.2409 22.7665C24.0743 22.7665 23.9409 22.7331 23.9409 22.7331Z" fill="#EBA352"/>
</svg>
